<svg width="36" height="36" viewBox="0 0 36 36" fill="none" xmlns="http://www.w3.org/2000/svg">
<path d="M24 15L30 21M30 15L24 21M9 22.5H6C5.60218 22.5 5.22064 22.342 4.93934 22.0607C4.65804 21.7794 4.5 21.3978 4.5 21V15C4.5 14.6022 4.65804 14.2207 4.93934 13.9394C5.22064 13.6581 5.60218 13.5 6 13.5H9L14.25 6.75002C14.3811 6.49537 14.599 6.296 14.8642 6.18796C15.1295 6.07991 15.4247 6.07031 15.6964 6.16088C15.9681 6.25146 16.1985 6.43624 16.3458 6.68183C16.4932 6.92742 16.5479 7.21763 16.5 7.50002V28.5C16.5479 28.7824 16.4932 29.0726 16.3458 29.3182C16.1985 29.5638 15.9681 29.7486 15.6964 29.8392C15.4247 29.9297 15.1295 29.9201 14.8642 29.8121C14.599 29.704 14.3811 29.5047 14.25 29.25L9 22.5Z" stroke="#C7C7C7" stroke-width="3" stroke-linecap="round" stroke-linejoin="round"/>
</svg>
