<svg width="36" height="36" viewBox="0 0 36 36" fill="none" xmlns="http://www.w3.org/2000/svg">
<path d="M22.5 12C23.4315 12.6986 24.1875 13.6045 24.7082 14.6459C25.2289 15.6873 25.5 16.8357 25.5 18C25.5 19.1643 25.2289 20.3127 24.7082 21.3541C24.1875 22.3955 23.4315 23.3014 22.5 24M26.5499 7.5C28.1159 8.76548 29.3789 10.3652 30.2466 12.182C31.1143 13.9988 31.5646 15.9866 31.5646 18C31.5646 20.0134 31.1143 22.0012 30.2466 23.818C29.3789 25.6348 28.1159 27.2345 26.5499 28.5M9 22.5H6C5.60218 22.5 5.22064 22.342 4.93934 22.0607C4.65804 21.7794 4.5 21.3978 4.5 21V15C4.5 14.6022 4.65804 14.2206 4.93934 13.9393C5.22064 13.658 5.60218 13.5 6 13.5H9L14.25 6.75C14.3811 6.49535 14.599 6.29599 14.8642 6.18794C15.1295 6.07989 15.4247 6.07029 15.6964 6.16087C15.9681 6.25144 16.1985 6.43622 16.3458 6.68181C16.4932 6.9274 16.5479 7.21761 16.5 7.5V28.5C16.5479 28.7824 16.4932 29.0726 16.3458 29.3182C16.1985 29.5638 15.9681 29.7486 15.6964 29.8391C15.4247 29.9297 15.1295 29.9201 14.8642 29.8121C14.599 29.704 14.3811 29.5047 14.25 29.25L9 22.5Z" stroke="#C7C7C7" stroke-width="3" stroke-linecap="round" stroke-linejoin="round"/>
</svg>
